<svg width="73" height="64" viewBox="0 0 73 64" fill="none" xmlns="http://www.w3.org/2000/svg">
<path d="M29.2185 9.42145C25.5339 6.32389 20.6136 4.25632 15.1354 3.62772L9.44368 48.0615C14.9331 45.3767 23.7702 43.5894 30.1696 48.0956C25.0808 42.9835 20.7821 37.1178 21.2464 28.3515C21.6508 20.759 25.8597 15.5333 29.2148 9.42145H29.2185Z" fill="white"/>
<path d="M28.1813 51.1326C19.7636 45.0511 7.97583 51.5605 5.74035 53.1623L11.2298 10.2924C9.85932 10.0614 8.41394 9.87588 6.88617 9.74713L0 64C0 64 0.66278 63.4055 1.93592 62.4588C15.2177 52.3292 28.1775 51.1326 28.1775 51.1326H28.1813Z" fill="white"/>
<path d="M33.9029 23.5574C33.9029 23.5574 32.9218 28.0182 34.8727 32.9145C36.3331 36.5763 39.3287 41.0485 42.3693 41.4574C44.1666 41.696 45.6682 39.7647 46.0801 39.1816C52.9513 29.3549 46.668 19.4033 46.668 19.4033C44.9118 22.0692 42.2682 25.0721 39.7706 22.2131C37.2842 19.3693 40.6917 16.1127 40.6243 11.1066C40.5532 5.75966 36.041 0.00378418 36.041 0.00378418C34.8166 10.6862 25.1182 18.4529 24.5603 28.9005C24.1334 36.9209 28.0614 41.1772 32.5698 45.3957C31.3005 42.7563 27.1328 32.5017 33.9066 23.5574H33.9029Z" fill="white"/>
<path d="M44.4961 46.7135C44.44 46.7589 44.3876 46.8006 44.3351 46.8422C51.3112 43.597 59.1297 46.278 62.848 48.0578L57.1564 3.62772C51.8728 4.23738 47.3045 6.05882 43.6873 8.96705C44.5785 16.2263 41.2197 17.4721 42.4629 18.8846C43.6049 20.1796 47.5292 12.8182 47.5292 12.8182C47.5292 12.8182 52.3035 19.6609 52.7191 28.2341C53.0187 34.4368 51.3037 41.3438 44.4924 46.7135H44.4961Z" fill="white"/>
<path d="M44.1105 51.1326C52.5281 45.0511 64.3159 51.5605 66.5514 53.1623L61.0619 10.2886C62.4324 10.0576 63.8778 9.8721 65.4055 9.74335L72.2917 63.9962C72.2917 63.9962 71.6289 63.4017 70.3558 62.455C57.074 52.3254 44.1142 51.1288 44.1142 51.1288L44.1105 51.1326Z" fill="white"/>
</svg>
