<svg width="211" height="64" viewBox="0 0 211 64" fill="none" xmlns="http://www.w3.org/2000/svg">
<g clip-path="url(#clip0_501_1013)">
<path d="M86.5508 56.1046C86.5508 55.9531 86.6519 55.8508 86.8017 55.8508H88.6889C88.8387 55.8508 88.9398 55.9531 88.9398 56.1046V61.1561C88.9398 61.3076 88.8387 61.4098 88.6889 61.4098H86.8017C86.6519 61.4098 86.5508 61.3076 86.5508 61.1561V56.1046ZM93.216 61.1561V55.8016C93.216 54.2983 92.9502 53.5901 91.2801 53.5901H86.8204C86.6706 53.5901 86.5882 53.5068 86.5882 53.3554V51.6816C86.5882 51.5301 86.6706 51.4468 86.8204 51.4468H92.2986C94.3843 51.4468 95.6238 52.6132 95.6238 54.6542V61.1561C95.6238 61.3076 95.5077 61.4098 95.3579 61.4098H93.4707C93.3209 61.4098 93.2198 61.3076 93.2198 61.1561H93.216Z" fill="#2A7DE1"/>
<path d="M103.674 61.1561V55.8017C103.674 54.2983 103.409 53.5902 101.739 53.5902H98.1812C98.0314 53.5902 97.9453 53.5069 97.9453 53.3554V51.6817C97.9453 51.5302 98.0277 51.4469 98.1812 51.4469H102.757C104.846 51.4469 106.082 52.6132 106.082 54.6543V61.1561C106.082 61.3076 105.966 61.4099 105.816 61.4099H103.929C103.779 61.4099 103.678 61.3076 103.678 61.1561H103.674Z" fill="#2A7DE1"/>
<path d="M109.744 61.1561V54.1317C109.744 53.7265 109.594 53.5902 109.227 53.5902H108.494C108.344 53.5902 108.243 53.488 108.243 53.3365V51.6968C108.243 51.5454 108.344 51.4431 108.494 51.4431H110.366C111.467 51.4431 112.137 52.049 112.137 53.1661V61.1561C112.137 61.3076 112.036 61.4099 111.886 61.4099H109.999C109.849 61.4099 109.748 61.3076 109.748 61.1561H109.744Z" fill="#2A7DE1"/>
<path d="M122.356 61.1561V55.8017C122.356 54.2983 122.071 53.5902 120.416 53.5902H119.098V59.0128C119.098 60.9062 118.095 61.5273 116.477 61.5273C115.825 61.5273 114.942 61.425 114.942 60.9706V59.6528C114.942 59.4483 115.058 59.2969 115.26 59.3158C115.458 59.3499 115.777 59.3839 115.96 59.3839C116.413 59.3839 116.713 59.1492 116.713 58.5887V53.5902H115.511C115.361 53.5902 115.279 53.5069 115.279 53.3554V51.6817C115.279 51.5302 115.361 51.4469 115.511 51.4469H121.423C123.509 51.4469 124.749 52.6132 124.749 54.6543V61.1561C124.749 61.3076 124.647 61.4099 124.498 61.4099H122.61C122.461 61.4099 122.36 61.3076 122.36 61.1561H122.356Z" fill="#2A7DE1"/>
<path d="M136.492 61.1789V55.8244C136.492 54.321 136.226 53.6129 134.556 53.6129H130.998C130.849 53.6129 130.762 53.5296 130.762 53.3781V51.7044C130.762 51.5529 130.845 51.4696 130.998 51.4696H135.574C137.664 51.4696 138.899 52.6359 138.899 54.677V61.1789C138.899 61.3303 138.783 61.4326 138.633 61.4326H136.746C136.596 61.4326 136.495 61.3303 136.495 61.1789H136.492Z" fill="#2A7DE1"/>
<path d="M142.981 61.1789V54.1544C142.981 53.7492 142.831 53.6129 142.464 53.6129H141.73C141.58 53.6129 141.479 53.5107 141.479 53.3592V51.7195C141.479 51.5681 141.58 51.4658 141.73 51.4658H143.602C144.703 51.4658 145.374 52.0717 145.374 53.1888V61.1789C145.374 61.3303 145.272 61.4326 145.123 61.4326H143.235C143.086 61.4326 142.985 61.3303 142.985 61.1789H142.981Z" fill="#2A7DE1"/>
<path d="M154.772 61.2622L151.698 56.684C150.863 57.3921 150.597 58.3388 150.597 59.3877C150.597 60.1489 150.747 60.6033 150.915 61.1599C150.964 61.3303 150.833 61.4288 150.679 61.4288H148.86C148.71 61.4288 148.642 61.3455 148.594 61.1751C148.392 60.448 148.26 59.9595 148.26 59.0961C148.26 57.4413 148.762 55.8547 150.447 54.8057L148.392 51.765C148.29 51.6135 148.358 51.462 148.541 51.462H150.597C150.732 51.462 150.814 51.5113 150.897 51.6287L153.75 55.885C154.686 55.245 154.986 54.3816 154.986 53.3706C154.986 52.6965 154.851 52.2913 154.686 51.7309C154.637 51.5605 154.768 51.462 154.922 51.462H156.742C156.892 51.462 156.959 51.5453 157.008 51.7158C157.176 52.2724 157.326 52.8821 157.326 53.7076C157.326 55.2791 156.791 56.7484 155.004 57.7443L157.277 61.1221C157.378 61.2735 157.311 61.425 157.128 61.425H155.072C154.941 61.425 154.855 61.3758 154.772 61.2546V61.2622Z" fill="#2A7DE1"/>
<path d="M164.265 56.1046C164.265 55.9531 164.366 55.8509 164.516 55.8509H166.403C166.553 55.8509 166.654 55.9531 166.654 56.1046V61.1561C166.654 61.3076 166.553 61.4099 166.403 61.4099H164.516C164.366 61.4099 164.265 61.3076 164.265 61.1561V56.1046ZM170.93 61.1561V55.8017C170.93 54.2983 170.664 53.5902 168.994 53.5902H164.534C164.384 53.5902 164.302 53.5069 164.302 53.3554V51.6817C164.302 51.5302 164.384 51.4469 164.534 51.4469H170.012C172.098 51.4469 173.338 52.6132 173.338 54.6543V61.1561C173.338 61.3076 173.222 61.4099 173.072 61.4099H171.185C171.035 61.4099 170.934 61.3076 170.934 61.1561H170.93Z" fill="#2A7DE1"/>
<path d="M175.809 61.1561V59.5165C175.809 59.365 175.91 59.2628 176.06 59.2628H181.437C181.388 59.1946 181.369 59.0772 181.369 58.9257V55.8017C181.369 54.2983 181.104 53.5902 179.434 53.5902H176.393C176.243 53.5902 176.161 53.5069 176.161 53.3554V51.6817C176.161 51.5302 176.243 51.4469 176.393 51.4469H180.452C182.538 51.4469 183.777 52.6132 183.777 54.6543V58.9257C183.777 59.1643 183.893 59.2628 184.095 59.2628H184.429C184.579 59.2628 184.68 59.365 184.68 59.5165V61.1561C184.68 61.3076 184.579 61.4099 184.429 61.4099H176.063C175.914 61.4099 175.813 61.3076 175.813 61.1561H175.809Z" fill="#2A7DE1"/>
<path d="M188.125 57.7102V54.1317C188.125 53.7265 187.975 53.5902 187.608 53.5902H186.855C186.706 53.5902 186.604 53.488 186.604 53.3365V51.6968C186.604 51.5454 186.706 51.4431 186.855 51.4431H188.761C189.862 51.4431 190.465 52.049 190.465 53.1661V57.7102C190.465 57.8617 190.364 57.9639 190.214 57.9639H188.376C188.226 57.9639 188.125 57.8617 188.125 57.7102Z" fill="#2A7DE1"/>
<path d="M193.704 56.6613V51.6968C193.704 51.5454 193.805 51.4431 193.955 51.4431H195.842C195.992 51.4431 196.093 51.5454 196.093 51.6968V54.9383H196.595C197.565 54.9383 197.864 54.4801 197.864 53.488V51.6817C197.864 51.5302 197.947 51.4469 198.096 51.4469H199.95C200.1 51.4469 200.186 51.5302 200.186 51.6817V53.9272C200.186 55.8888 198.916 57.0021 197.01 57.0021H196.142C196.374 58.638 197.276 59.2325 198.995 59.2325C201.017 59.2325 201.886 58.4221 201.886 56.0743V51.7006C201.886 51.5491 201.987 51.4469 202.137 51.4469H204.024C204.174 51.4469 204.275 51.5491 204.275 51.7006V56.6651C204.275 59.9936 202.155 61.5462 198.995 61.5462C195.835 61.5462 193.7 59.9936 193.7 56.6651L193.704 56.6613Z" fill="#2A7DE1"/>
<path d="M208.375 57.7102V54.1317C208.375 53.7265 208.225 53.5902 207.855 53.5902H207.102C206.952 53.5902 206.851 53.488 206.851 53.3365V51.6968C206.851 51.5454 206.952 51.4431 207.102 51.4431H209.008C210.109 51.4431 210.712 52.049 210.712 53.1661V57.7102C210.712 57.8617 210.611 57.9639 210.461 57.9639H208.622C208.472 57.9639 208.371 57.8617 208.371 57.7102H208.375Z" fill="#2A7DE1"/>
<path d="M86.5843 8.25513L93.3769 15.1432L100.166 8.25513V22.1828H97.0952V15.431L93.3731 19.1951L89.6511 15.431V22.1828H86.5806V8.25513H86.5843Z" fill="#003DA6"/>
<path d="M109.269 8.25513L115.983 22.1866H112.759L111.781 20.0509H106.756L105.779 22.1866H102.559L109.273 8.25513H109.269ZM110.553 17.5289L109.269 14.6585L107.984 17.5289H110.553Z" fill="#003DA6"/>
<path d="M120.592 14.988V22.1866H117.522V8.25513L126.115 15.609V8.41038H129.186V22.3381L120.592 14.988Z" fill="#003DA6"/>
<path d="M133.039 8.4104H136.11V13.8027H141.558V8.4104H144.628V22.1828H141.558V16.7905H136.11V22.1828H133.039V8.4104Z" fill="#003DA6"/>
<path d="M154.061 8.25513L160.775 22.1866H157.551L156.573 20.0509H151.548L150.571 22.1866H147.351L154.065 8.25513H154.061ZM155.345 17.5289L154.061 14.6585L152.776 17.5289H155.345Z" fill="#003DA6"/>
<path d="M164.002 11.4739H160.741V8.4104H170.353V11.4739H167.073V22.1828H164.002V11.4739Z" fill="#003DA6"/>
<path d="M176.752 11.4739H173.491V8.4104H183.103V11.4739H179.823V22.1828H176.752V11.4739Z" fill="#003DA6"/>
<path d="M190.087 8.25513L196.801 22.1866H193.577L192.599 20.0509H187.574L186.597 22.1866H183.376L190.09 8.25513H190.087ZM191.371 17.5289L190.087 14.6585L188.802 17.5289H191.371Z" fill="#003DA6"/>
<path d="M202.406 14.988V22.1866H199.336V8.25513L207.929 15.609V8.41038H211V22.3381L202.406 14.988Z" fill="#003DA6"/>
<path d="M86.5508 28.4537H91.3288C95.1669 28.4537 98.2524 31.5362 98.2524 35.3418C98.2524 39.1475 95.1632 42.23 91.3288 42.23H86.5508V28.4575V28.4537ZM91.3288 39.3937C93.6092 39.3937 95.1669 37.5495 95.1669 35.3381C95.1669 33.1266 93.6129 31.2824 91.3288 31.2824H89.6213V39.3899H91.3288V39.3937Z" fill="#003DA6"/>
<path d="M105.101 28.2985L111.815 42.2299H108.591L107.614 40.0942H102.588L101.611 42.2299H98.3909L105.105 28.2985H105.101ZM106.385 37.5722L105.101 34.7019L103.817 37.5722H106.385Z" fill="#003DA6"/>
<path d="M114.331 36.4476L109.284 28.4537H112.871L115.863 33.3424L118.855 28.4537H122.442L117.398 36.4476V42.23H114.328V36.4476H114.331Z" fill="#003DA6"/>
<path d="M140.682 35.3418C140.682 31.4604 143.808 28.2985 147.646 28.2985C149.987 28.2985 152.076 29.4837 153.346 31.2862L151.024 33.2061C150.331 32.0814 149.107 31.2862 147.646 31.2862C145.441 31.2862 143.771 33.1304 143.771 35.3418C143.771 37.5533 145.441 39.3975 147.646 39.3975C149.103 39.3975 150.331 38.6022 151.024 37.4776L153.346 39.3975C152.08 41.2037 149.987 42.3852 147.646 42.3852C143.808 42.3852 140.682 39.2233 140.682 35.3418Z" fill="#003DA6"/>
<path d="M155.877 28.4537H158.947V33.8461H164.396V28.4537H167.466V42.2262H164.396V36.8338H158.947V42.2262H155.877V28.4537Z" fill="#003DA6"/>
<path d="M169.99 35.3418C169.99 31.4604 173.117 28.2985 176.955 28.2985C180.793 28.2985 183.92 31.4604 183.92 35.3418C183.92 39.2233 180.793 42.3852 176.955 42.3852C173.117 42.3852 169.99 39.2233 169.99 35.3418ZM180.827 35.3418C180.827 33.1304 179.157 31.2862 176.951 31.2862C174.746 31.2862 173.075 33.1304 173.075 35.3418C173.075 37.5533 174.746 39.3975 176.951 39.3975C179.157 39.3975 180.827 37.5533 180.827 35.3418Z" fill="#003DA6"/>
<path d="M186.181 35.3418C186.181 31.4604 189.308 28.2985 193.146 28.2985C196.984 28.2985 200.111 31.4604 200.111 35.3418C200.111 39.2233 196.984 42.3852 193.146 42.3852C189.308 42.3852 186.181 39.2233 186.181 35.3418ZM197.018 35.3418C197.018 33.1304 195.348 31.2862 193.142 31.2862C190.937 31.2862 189.267 33.1304 189.267 35.3418C189.267 37.5533 190.937 39.3975 193.142 39.3975C195.348 39.3975 197.018 37.5533 197.018 35.3418Z" fill="#003DA6"/>
<path d="M202.635 28.4537H205.705V39.1438H211V42.2262H202.635V28.4537Z" fill="#003DA6"/>
<path d="M134.908 42.2867C134.425 42.3776 133.915 42.4268 133.387 42.4306C131.268 42.4534 128.961 41.8513 127.366 40.8629L127.239 40.7834L128.954 38.2349L129.066 38.2993C130.377 39.0566 131.991 39.4807 133.488 39.4656C133.777 39.4656 134.043 39.4391 134.286 39.3936C135.17 39.2308 135.671 38.8105 135.705 38.2084C135.739 37.5609 135.451 37.2655 133.765 36.9057L132.103 36.5498C129.163 35.9212 127.785 34.592 127.763 32.3616C127.741 30.4304 129.354 28.8286 131.777 28.3742C132.197 28.2947 132.631 28.253 133.073 28.2492C134.941 28.2303 136.903 28.7491 138.454 29.673L138.581 29.7488L136.975 32.3011L136.855 32.2329C135.664 31.5361 134.526 31.1991 133.38 31.2067C133.08 31.2067 132.799 31.2332 132.549 31.2824C131.676 31.4452 131.182 31.858 131.189 32.4222C131.2 33.0698 131.687 33.4144 132.99 33.6908L134.818 34.077C137.705 34.6867 139 35.9591 139.027 38.1932C139.049 40.2116 137.435 41.821 134.911 42.2905L134.908 42.2867Z" fill="#003DA6"/>
<path d="M29.2184 9.42149C25.5338 6.32392 20.6135 4.25635 15.1353 3.62775L9.4436 48.0616C14.9331 45.3767 23.7701 43.5894 30.1695 48.0956C25.0807 42.9835 20.782 37.1178 21.2463 28.3515C21.6507 20.759 25.8596 15.5333 29.2147 9.42149H29.2184Z" fill="#2A7DE1"/>
<path d="M28.1813 51.1326C19.7636 45.0511 7.97583 51.5605 5.74035 53.1623L11.2298 10.2924C9.85932 10.0614 8.41394 9.87588 6.88617 9.74713L0 64C0 64 0.66278 63.4055 1.93592 62.4588C15.2177 52.3292 28.1775 51.1326 28.1775 51.1326H28.1813Z" fill="#003DA6"/>
<path d="M33.903 23.5574C33.903 23.5574 32.9219 28.0182 34.8728 32.9145C36.3332 36.5763 39.3288 41.0485 42.3693 41.4574C44.1667 41.696 45.6683 39.7647 46.0802 39.1816C52.9514 29.3549 46.6681 19.4033 46.6681 19.4033C44.9119 22.0692 42.2682 25.0721 39.7706 22.2131C37.2843 19.3693 40.6918 16.1127 40.6244 11.1066C40.5533 5.75966 36.0411 0.00378418 36.0411 0.00378418C34.8167 10.6862 25.1183 18.4529 24.5604 28.9005C24.1335 36.9209 28.0615 41.1772 32.5699 45.3957C31.3005 42.7563 27.1329 32.5017 33.9067 23.5574H33.903Z" fill="#F5A800"/>
<path d="M44.4962 46.7135C44.44 46.7589 44.3876 46.8006 44.3352 46.8422C51.3112 43.597 59.1298 46.278 62.8481 48.0578L57.1564 3.62775C51.8729 4.23741 47.3046 6.05885 43.6874 8.96708C44.5786 16.2263 41.2197 17.4721 42.4629 18.8846C43.605 20.1797 47.5292 12.8182 47.5292 12.8182C47.5292 12.8182 52.3035 19.6609 52.7191 28.2341C53.0187 34.4368 51.3037 41.3439 44.4924 46.7135H44.4962Z" fill="#2A7DE1"/>
<path d="M44.1104 51.1326C52.528 45.0511 64.3158 51.5605 66.5513 53.1623L61.0618 10.2886C62.4323 10.0576 63.8777 9.8721 65.4054 9.74335L72.2916 63.9962C72.2916 63.9962 71.6288 63.4017 70.3557 62.455C57.0739 52.3254 44.1141 51.1288 44.1141 51.1288L44.1104 51.1326Z" fill="#003DA6"/>
</g>
<defs>
<clipPath id="clip0_501_1013">
<rect width="211" height="64" fill="white"/>
</clipPath>
</defs>
</svg>
